<?xml version="1.0" encoding="UTF-8" standalone="no"?><svg xmlns="http://www.w3.org/2000/svg" xmlns:xlink="http://www.w3.org/1999/xlink" contentScriptType="application/ecmascript" contentStyleType="text/css" height="1277px" preserveAspectRatio="none" style="width:1549px;height:1277px;" version="1.1" viewBox="0 0 1549 1277" width="1549px" zoomAndPan="magnify"><defs><filter height="300%" id="f1ltev19ra5w4u" width="300%" x="-1" y="-1"><feGaussianBlur result="blurOut" stdDeviation="2.0"/><feColorMatrix in="blurOut" result="blurOut2" type="matrix" values="0 0 0 0 0 0 0 0 0 0 0 0 0 0 0 0 0 0 .4 0"/><feOffset dx="4.0" dy="4.0" in="blurOut2" result="blurOut3"/><feBlend in="SourceGraphic" in2="blurOut3" mode="normal"/></filter></defs><g><!--entity Tetris_Window--><rect fill="#FFFFFF" filter="url(#f1ltev19ra5w4u)" height="36.2969" style="stroke: #000000; stroke-width: 1.5;" width="120" x="591" y="478.5"/><text fill="#000000" font-family="sans-serif" font-size="14" lengthAdjust="spacingAndGlyphs" textLength="100" x="601" y="501.4951">Tetris_Window</text><!--class ClearLines--><rect fill="#FEFECE" filter="url(#f1ltev19ra5w4u)" height="188.0469" id="ClearLines" style="stroke: #A80036; stroke-width: 1.5;" width="829" x="706.5" y="1008"/><ellipse cx="1015.75" cy="1024" fill="#ADD1B2" rx="11" ry="11" style="stroke: #A80036; stroke-width: 1.0;"/><path d="M1018.7188,1029.6406 Q1018.1406,1029.9375 1017.5,1030.0859 Q1016.8594,1030.2344 1016.1563,1030.2344 Q1013.6563,1030.2344 1012.3359,1028.5859 Q1011.0156,1026.9375 1011.0156,1023.8125 Q1011.0156,1020.6875 1012.3359,1019.0313 Q1013.6563,1017.375 1016.1563,1017.375 Q1016.8594,1017.375 1017.5078,1017.5313 Q1018.1563,1017.6875 1018.7188,1017.9844 L1018.7188,1020.7031 Q1018.0938,1020.125 1017.5,1019.8516 Q1016.9063,1019.5781 1016.2813,1019.5781 Q1014.9375,1019.5781 1014.25,1020.6484 Q1013.5625,1021.7188 1013.5625,1023.8125 Q1013.5625,1025.9063 1014.25,1026.9766 Q1014.9375,1028.0469 1016.2813,1028.0469 Q1016.9063,1028.0469 1017.5,1027.7734 Q1018.0938,1027.5 1018.7188,1026.9219 L1018.7188,1029.6406 Z "/><text fill="#000000" font-family="sans-serif" font-size="12" lengthAdjust="spacingAndGlyphs" textLength="64" x="1036.25" y="1028.1543">ClearLines</text><rect fill="#FFFFFF" height="15.9688" style="stroke: #000000; stroke-width: 1.0; stroke-dasharray: 2.0,2.0;" width="136" x="1402.5" y="1005"/><text fill="#000000" font-family="sans-serif" font-size="12" font-style="italic" lengthAdjust="spacingAndGlyphs" textLength="134" x="1403.5" y="1017.1387">implements Runnable</text><line style="stroke: #A80036; stroke-width: 1.5;" x1="707.5" x2="1534.5" y1="1040" y2="1040"/><rect fill="none" height="6" style="stroke: #C82930; stroke-width: 1.0;" width="6" x="714.5" y="1048.9023"/><text fill="#000000" font-family="sans-serif" font-size="11" lengthAdjust="spacingAndGlyphs" textLength="128" x="726.5" y="1054.2104">playArea : AnchorPane</text><rect fill="none" height="6" style="stroke: #C82930; stroke-width: 1.0;" width="6" x="714.5" y="1061.707"/><text fill="#000000" font-family="sans-serif" font-size="11" lengthAdjust="spacingAndGlyphs" textLength="56" x="726.5" y="1067.0151">t : Thread</text><rect fill="none" height="6" style="stroke: #C82930; stroke-width: 1.0;" width="6" x="714.5" y="1074.5117"/><text fill="#000000" font-family="sans-serif" font-size="11" lengthAdjust="spacingAndGlyphs" textLength="192" x="726.5" y="1079.8198">rowsToClear : ArrayList&lt;Integer&gt;</text><rect fill="none" height="6" style="stroke: #C82930; stroke-width: 1.0;" width="6" x="714.5" y="1087.3164"/><text fill="#000000" font-family="sans-serif" font-size="11" lengthAdjust="spacingAndGlyphs" textLength="155" x="726.5" y="1092.6245">blockFXArray : Rectangle[][]</text><rect fill="none" height="6" style="stroke: #C82930; stroke-width: 1.0;" width="6" x="714.5" y="1100.1211"/><text fill="#000000" font-family="sans-serif" font-size="11" lengthAdjust="spacingAndGlyphs" textLength="133" x="726.5" y="1105.4292">currentBoard : Block[][]</text><rect fill="none" height="6" style="stroke: #C82930; stroke-width: 1.0;" width="6" x="714.5" y="1112.9258"/><text fill="#000000" font-family="sans-serif" font-size="11" lengthAdjust="spacingAndGlyphs" textLength="109" x="726.5" y="1118.2339">oldBoard : Block[][]</text><line style="stroke: #A80036; stroke-width: 1.0;" x1="707.5" x2="1534.5" y1="1124.8281" y2="1124.8281"/><text fill="#000000" font-family="sans-serif" font-size="11" lengthAdjust="spacingAndGlyphs" textLength="817" x="712.5" y="1155.8433">ClearLines(currentBoard : Block[][], oldBoard : Block[][], rowsToClear : ArrayList&lt;Integer&gt;, blockFXArray : Rectangle[][], playArea : AnchorPane)</text><line style="stroke: #A80036; stroke-width: 1.0; stroke-dasharray: 1.0,2.0;" x1="707.5" x2="1087.5" y1="1139.2305" y2="1139.2305"/><text fill="#000000" font-family="sans-serif" font-size="11" lengthAdjust="spacingAndGlyphs" textLength="67" x="1087.5" y="1142.5386">Constructor</text><line style="stroke: #A80036; stroke-width: 1.0; stroke-dasharray: 1.0,2.0;" x1="1154.5" x2="1534.5" y1="1139.2305" y2="1139.2305"/><line style="stroke: #A80036; stroke-width: 1.0; stroke-dasharray: 1.0,2.0;" x1="707.5" x2="1534.5" y1="1162.4375" y2="1162.4375"/><ellipse cx="717.5" cy="1174.3398" fill="#84BE84" rx="3" ry="3" style="stroke: #038048; stroke-width: 1.0;"/><text fill="#000000" font-family="sans-serif" font-size="11" lengthAdjust="spacingAndGlyphs" textLength="27" x="726.5" y="1176.6479">run()</text><ellipse cx="717.5" cy="1187.1445" fill="#84BE84" rx="3" ry="3" style="stroke: #038048; stroke-width: 1.0;"/><text fill="#000000" font-family="sans-serif" font-size="11" lengthAdjust="spacingAndGlyphs" textLength="35" x="726.5" y="1189.4526">start()</text><!--class GameSettings--><rect fill="#FEFECE" filter="url(#f1ltev19ra5w4u)" height="290.4844" id="GameSettings" style="stroke: #A80036; stroke-width: 1.5;" width="278" x="6" y="351.5"/><ellipse cx="96.75" cy="367.5" fill="#ADD1B2" rx="11" ry="11" style="stroke: #A80036; stroke-width: 1.0;"/><path d="M99.7188,373.1406 Q99.1406,373.4375 98.5,373.5859 Q97.8594,373.7344 97.1563,373.7344 Q94.6563,373.7344 93.3359,372.0859 Q92.0156,370.4375 92.0156,367.3125 Q92.0156,364.1875 93.3359,362.5313 Q94.6563,360.875 97.1563,360.875 Q97.8594,360.875 98.5078,361.0313 Q99.1563,361.1875 99.7188,361.4844 L99.7188,364.2031 Q99.0938,363.625 98.5,363.3516 Q97.9063,363.0781 97.2813,363.0781 Q95.9375,363.0781 95.25,364.1484 Q94.5625,365.2188 94.5625,367.3125 Q94.5625,369.4063 95.25,370.4766 Q95.9375,371.5469 97.2813,371.5469 Q97.9063,371.5469 98.5,371.2734 Q99.0938,371 99.7188,370.4219 L99.7188,373.1406 Z "/><text fill="#000000" font-family="sans-serif" font-size="12" lengthAdjust="spacingAndGlyphs" textLength="88" x="117.25" y="371.6543">GameSettings</text><line style="stroke: #A80036; stroke-width: 1.5;" x1="7" x2="283" y1="383.5" y2="383.5"/><rect fill="none" height="6" style="stroke: #C82930; stroke-width: 1.0;" width="6" x="14" y="392.4023"/><text fill="#000000" font-family="sans-serif" font-size="11" lengthAdjust="spacingAndGlyphs" textLength="88" x="26" y="397.7104">dropSpeed : int</text><rect fill="none" height="6" style="stroke: #C82930; stroke-width: 1.0;" width="6" x="14" y="405.207"/><text fill="#000000" font-family="sans-serif" font-size="11" lengthAdjust="spacingAndGlyphs" textLength="72" x="26" y="410.5151">level : String</text><rect fill="none" height="6" style="stroke: #C82930; stroke-width: 1.0;" width="6" x="14" y="418.0117"/><text fill="#000000" font-family="sans-serif" font-size="11" lengthAdjust="spacingAndGlyphs" textLength="72" x="26" y="423.3198">user : String</text><rect fill="none" height="6" style="stroke: #C82930; stroke-width: 1.0;" width="6" x="14" y="430.8164"/><text fill="#000000" font-family="sans-serif" font-size="11" lengthAdjust="spacingAndGlyphs" textLength="158" x="26" y="436.1245">currentControls : KeyCode[]</text><rect fill="none" height="6" style="stroke: #C82930; stroke-width: 1.0;" width="6" x="14" y="443.6211"/><text fill="#000000" font-family="sans-serif" font-size="11" lengthAdjust="spacingAndGlyphs" textLength="168" x="26" y="448.9292">standardControls : KeyCode[]</text><rect fill="none" height="6" style="stroke: #C82930; stroke-width: 1.0;" width="6" x="14" y="456.4258"/><text fill="#000000" font-family="sans-serif" font-size="11" lengthAdjust="spacingAndGlyphs" textLength="147" x="26" y="461.7339">wasdControls : KeyCode[]</text><line style="stroke: #A80036; stroke-width: 1.0;" x1="7" x2="283" y1="468.3281" y2="468.3281"/><ellipse cx="17" cy="497.0352" fill="#84BE84" rx="3" ry="3" style="stroke: #038048; stroke-width: 1.0;"/><text fill="#000000" font-family="sans-serif" font-size="11" lengthAdjust="spacingAndGlyphs" textLength="89" x="26" y="499.3433">GameSettings()</text><line style="stroke: #A80036; stroke-width: 1.0; stroke-dasharray: 1.0,2.0;" x1="7" x2="111.5" y1="482.7305" y2="482.7305"/><text fill="#000000" font-family="sans-serif" font-size="11" lengthAdjust="spacingAndGlyphs" textLength="67" x="111.5" y="486.0386">Constructor</text><line style="stroke: #A80036; stroke-width: 1.0; stroke-dasharray: 1.0,2.0;" x1="178.5" x2="283" y1="482.7305" y2="482.7305"/><ellipse cx="17" cy="526.6445" fill="#84BE84" rx="3" ry="3" style="stroke: #038048; stroke-width: 1.0;"/><text fill="#000000" font-family="sans-serif" font-size="11" lengthAdjust="spacingAndGlyphs" textLength="177" x="26" y="528.9526">setDropSpeed(dropSpeed : int)</text><ellipse cx="17" cy="539.4492" fill="#84BE84" rx="3" ry="3" style="stroke: #038048; stroke-width: 1.0;"/><text fill="#000000" font-family="sans-serif" font-size="11" lengthAdjust="spacingAndGlyphs" textLength="127" x="26" y="541.7573">setLevel(level : String)</text><ellipse cx="17" cy="552.2539" fill="#84BE84" rx="3" ry="3" style="stroke: #038048; stroke-width: 1.0;"/><text fill="#000000" font-family="sans-serif" font-size="11" lengthAdjust="spacingAndGlyphs" textLength="125" x="26" y="554.562">setUser(user : String)</text><ellipse cx="17" cy="565.0586" fill="#84BE84" rx="3" ry="3" style="stroke: #038048; stroke-width: 1.0;"/><text fill="#000000" font-family="sans-serif" font-size="11" lengthAdjust="spacingAndGlyphs" textLength="252" x="26" y="567.3667">setCurrentControls(currentControls : String)</text><line style="stroke: #A80036; stroke-width: 1.0; stroke-dasharray: 1.0,2.0;" x1="7" x2="124" y1="512.3398" y2="512.3398"/><text fill="#000000" font-family="sans-serif" font-size="11" lengthAdjust="spacingAndGlyphs" textLength="42" x="124" y="515.6479">Setters</text><line style="stroke: #A80036; stroke-width: 1.0; stroke-dasharray: 1.0,2.0;" x1="166" x2="283" y1="512.3398" y2="512.3398"/><ellipse cx="17" cy="594.668" fill="#84BE84" rx="3" ry="3" style="stroke: #038048; stroke-width: 1.0;"/><text fill="#000000" font-family="sans-serif" font-size="11" lengthAdjust="spacingAndGlyphs" textLength="115" x="26" y="596.9761">getDropSpeed() : int</text><ellipse cx="17" cy="607.4727" fill="#84BE84" rx="3" ry="3" style="stroke: #038048; stroke-width: 1.0;"/><text fill="#000000" font-family="sans-serif" font-size="11" lengthAdjust="spacingAndGlyphs" textLength="101" x="26" y="609.7808">getLevel() : String</text><ellipse cx="17" cy="620.2773" fill="#84BE84" rx="3" ry="3" style="stroke: #038048; stroke-width: 1.0;"/><text fill="#000000" font-family="sans-serif" font-size="11" lengthAdjust="spacingAndGlyphs" textLength="99" x="26" y="622.5854">getUser() : String</text><ellipse cx="17" cy="633.082" fill="#84BE84" rx="3" ry="3" style="stroke: #038048; stroke-width: 1.0;"/><text fill="#000000" font-family="sans-serif" font-size="11" lengthAdjust="spacingAndGlyphs" textLength="143" x="26" y="635.3901">getControls() : KeyCode[]</text><line style="stroke: #A80036; stroke-width: 1.0; stroke-dasharray: 1.0,2.0;" x1="7" x2="123.5" y1="580.3633" y2="580.3633"/><text fill="#000000" font-family="sans-serif" font-size="11" lengthAdjust="spacingAndGlyphs" textLength="43" x="123.5" y="583.6714">Getters</text><line style="stroke: #A80036; stroke-width: 1.0; stroke-dasharray: 1.0,2.0;" x1="166.5" x2="283" y1="580.3633" y2="580.3633"/><!--class Main--><rect fill="#FEFECE" filter="url(#f1ltev19ra5w4u)" height="73.6094" id="Main" style="stroke: #A80036; stroke-width: 1.5;" width="188" x="319" y="459.5"/><ellipse cx="334" cy="475.5" fill="#ADD1B2" rx="11" ry="11" style="stroke: #A80036; stroke-width: 1.0;"/><path d="M336.9688,481.1406 Q336.3906,481.4375 335.75,481.5859 Q335.1094,481.7344 334.4063,481.7344 Q331.9063,481.7344 330.5859,480.0859 Q329.2656,478.4375 329.2656,475.3125 Q329.2656,472.1875 330.5859,470.5313 Q331.9063,468.875 334.4063,468.875 Q335.1094,468.875 335.7578,469.0313 Q336.4063,469.1875 336.9688,469.4844 L336.9688,472.2031 Q336.3438,471.625 335.75,471.3516 Q335.1563,471.0781 334.5313,471.0781 Q333.1875,471.0781 332.5,472.1484 Q331.8125,473.2188 331.8125,475.3125 Q331.8125,477.4063 332.5,478.4766 Q333.1875,479.5469 334.5313,479.5469 Q335.1563,479.5469 335.75,479.2734 Q336.3438,479 336.9688,478.4219 L336.9688,481.1406 Z "/><text fill="#000000" font-family="sans-serif" font-size="12" lengthAdjust="spacingAndGlyphs" textLength="29" x="348" y="479.6543">Main</text><rect fill="#FFFFFF" height="15.9688" style="stroke: #000000; stroke-width: 1.0; stroke-dasharray: 2.0,2.0;" width="125" x="385" y="456.5"/><text fill="#000000" font-family="sans-serif" font-size="12" font-style="italic" lengthAdjust="spacingAndGlyphs" textLength="123" x="386" y="468.6387">extends Application</text><line style="stroke: #A80036; stroke-width: 1.5;" x1="320" x2="506" y1="491.5" y2="491.5"/><line style="stroke: #A80036; stroke-width: 1.5;" x1="320" x2="506" y1="499.5" y2="499.5"/><ellipse cx="330" cy="511.4023" fill="#84BE84" rx="3" ry="3" style="stroke: #038048; stroke-width: 1.0;"/><text fill="#000000" font-family="sans-serif" font-size="11" lengthAdjust="spacingAndGlyphs" textLength="157" x="339" y="513.7104">start(primaryStage : Stage)</text><ellipse cx="330" cy="524.207" fill="#84BE84" rx="3" ry="3" style="stroke: #038048; stroke-width: 1.0;"/><text fill="#000000" font-family="sans-serif" font-size="11" lengthAdjust="spacingAndGlyphs" text-decoration="underline" textLength="116" x="339" y="526.5151">main(args : String[])</text><line style="stroke: #000000; stroke-width: 1.0;" x1="339" x2="455" y1="528.5151" y2="528.5151"/><!--class MenuController--><rect fill="#FEFECE" filter="url(#f1ltev19ra5w4u)" height="329.7031" id="MenuController" style="stroke: #A80036; stroke-width: 1.5;" width="312" x="317" y="937"/><ellipse cx="421.25" cy="953" fill="#ADD1B2" rx="11" ry="11" style="stroke: #A80036; stroke-width: 1.0;"/><path d="M424.2188,958.6406 Q423.6406,958.9375 423,959.0859 Q422.3594,959.2344 421.6563,959.2344 Q419.1563,959.2344 417.8359,957.5859 Q416.5156,955.9375 416.5156,952.8125 Q416.5156,949.6875 417.8359,948.0313 Q419.1563,946.375 421.6563,946.375 Q422.3594,946.375 423.0078,946.5313 Q423.6563,946.6875 424.2188,946.9844 L424.2188,949.7031 Q423.5938,949.125 423,948.8516 Q422.4063,948.5781 421.7813,948.5781 Q420.4375,948.5781 419.75,949.6484 Q419.0625,950.7188 419.0625,952.8125 Q419.0625,954.9063 419.75,955.9766 Q420.4375,957.0469 421.7813,957.0469 Q422.4063,957.0469 423,956.7734 Q423.5938,956.5 424.2188,955.9219 L424.2188,958.6406 Z "/><text fill="#000000" font-family="sans-serif" font-size="12" lengthAdjust="spacingAndGlyphs" textLength="95" x="441.75" y="957.1543">MenuController</text><line style="stroke: #A80036; stroke-width: 1.5;" x1="318" x2="628" y1="969" y2="969"/><rect fill="none" height="6" style="stroke: #C82930; stroke-width: 1.0;" width="6" x="325" y="977.9023"/><text fill="#000000" font-family="sans-serif" font-size="11" lengthAdjust="spacingAndGlyphs" textLength="173" x="337" y="983.2104">dropSpeedButton1 : Rectangle</text><rect fill="none" height="6" style="stroke: #C82930; stroke-width: 1.0;" width="6" x="325" y="990.707"/><text fill="#000000" font-family="sans-serif" font-size="11" lengthAdjust="spacingAndGlyphs" textLength="96" x="337" y="996.0151">EASY : Rectangle</text><rect fill="none" height="6" style="stroke: #C82930; stroke-width: 1.0;" width="6" x="325" y="1003.5117"/><text fill="#000000" font-family="sans-serif" font-size="11" lengthAdjust="spacingAndGlyphs" textLength="202" x="337" y="1008.8198">controlsButtonStandard : Rectangle</text><rect fill="none" height="6" style="stroke: #C82930; stroke-width: 1.0;" width="6" x="325" y="1016.3164"/><text fill="#000000" font-family="sans-serif" font-size="11" lengthAdjust="spacingAndGlyphs" textLength="124" x="337" y="1021.6245">newGame : Rectangle</text><rect fill="none" height="6" style="stroke: #C82930; stroke-width: 1.0;" width="6" x="325" y="1029.1211"/><text fill="#000000" font-family="sans-serif" font-size="11" lengthAdjust="spacingAndGlyphs" textLength="120" x="337" y="1034.4292">controlsText1 : Teext</text><rect fill="none" height="6" style="stroke: #C82930; stroke-width: 1.0;" width="6" x="325" y="1041.9258"/><text fill="#000000" font-family="sans-serif" font-size="11" lengthAdjust="spacingAndGlyphs" textLength="120" x="337" y="1047.2339">controlsText2 : Teext</text><rect fill="none" height="6" style="stroke: #C82930; stroke-width: 1.0;" width="6" x="325" y="1054.7305"/><text fill="#000000" font-family="sans-serif" font-size="11" lengthAdjust="spacingAndGlyphs" textLength="138" x="337" y="1060.0386">userTextField : TextField</text><rect fill="none" height="6" style="stroke: #C82930; stroke-width: 1.0;" width="6" x="325" y="1067.5352"/><text fill="#000000" font-family="sans-serif" font-size="11" lengthAdjust="spacingAndGlyphs" textLength="208" x="337" y="1072.8433">currentDropSpeedButton : Rectangle</text><rect fill="none" height="6" style="stroke: #C82930; stroke-width: 1.0;" width="6" x="325" y="1080.3398"/><text fill="#000000" font-family="sans-serif" font-size="11" lengthAdjust="spacingAndGlyphs" textLength="174" x="337" y="1085.6479">currentLevelButton : Rectangle</text><rect fill="none" height="6" style="stroke: #C82930; stroke-width: 1.0;" width="6" x="325" y="1093.1445"/><text fill="#000000" font-family="sans-serif" font-size="11" lengthAdjust="spacingAndGlyphs" textLength="186" x="337" y="1098.4526">currentControlButton : Rectangle</text><rect fill="none" height="6" style="stroke: #C82930; stroke-width: 1.0;" width="6" x="325" y="1105.9492"/><text fill="#000000" font-family="sans-serif" font-size="11" lengthAdjust="spacingAndGlyphs" textLength="172" x="337" y="1111.2573">gameSettings : GameSettings</text><rect fill="none" height="6" style="stroke: #C82930; stroke-width: 1.0;" width="6" x="325" y="1118.7539"/><text fill="#000000" font-family="sans-serif" font-size="11" lengthAdjust="spacingAndGlyphs" textLength="88" x="337" y="1124.062">dropSpeed : int</text><line style="stroke: #A80036; stroke-width: 1.5;" x1="318" x2="628" y1="1130.6563" y2="1130.6563"/><ellipse cx="328" cy="1142.5586" fill="#84BE84" rx="3" ry="3" style="stroke: #038048; stroke-width: 1.0;"/><text fill="#000000" font-family="sans-serif" font-size="11" lengthAdjust="spacingAndGlyphs" textLength="53" x="337" y="1144.8667">initialize()</text><polygon fill="#FFFF44" points="328,1150.3633,332,1154.3633,328,1158.3633,324,1154.3633" style="stroke: #B38D22; stroke-width: 1.0;"/><text fill="#000000" font-family="sans-serif" font-size="11" lengthAdjust="spacingAndGlyphs" textLength="286" x="337" y="1157.6714">handleNewGameButtonAction(event : MouseEvent)</text><polygon fill="#FFFF44" points="328,1163.168,332,1167.168,328,1171.168,324,1167.168" style="stroke: #B38D22; stroke-width: 1.0;"/><text fill="#000000" font-family="sans-serif" font-size="11" lengthAdjust="spacingAndGlyphs" textLength="222" x="337" y="1170.4761">mouseOverButton(event : MouseEvent)</text><polygon fill="#FFFF44" points="328,1175.9727,332,1179.9727,328,1183.9727,324,1179.9727" style="stroke: #B38D22; stroke-width: 1.0;"/><text fill="#000000" font-family="sans-serif" font-size="11" lengthAdjust="spacingAndGlyphs" textLength="215" x="337" y="1183.2808">mouseExitButton(event : MouseEvent)</text><polygon fill="#FFFF44" points="328,1188.7773,332,1192.7773,328,1196.7773,324,1192.7773" style="stroke: #B38D22; stroke-width: 1.0;"/><text fill="#000000" font-family="sans-serif" font-size="11" lengthAdjust="spacingAndGlyphs" textLength="247" x="337" y="1196.0854">mouseClickDropSpeed(event : MouseEvent)</text><rect fill="#F24D5C" height="6" style="stroke: #C82930; stroke-width: 1.0;" width="6" x="325" y="1203.582"/><text fill="#000000" font-family="sans-serif" font-size="11" lengthAdjust="spacingAndGlyphs" textLength="182" x="337" y="1208.8901">setDropSpeed(difficulty : String)</text><polygon fill="#FFFF44" points="328,1214.3867,332,1218.3867,328,1222.3867,324,1218.3867" style="stroke: #B38D22; stroke-width: 1.0;"/><text fill="#000000" font-family="sans-serif" font-size="11" lengthAdjust="spacingAndGlyphs" textLength="213" x="337" y="1221.6948">mouseClickLevel(event : MouseEvent)</text><rect fill="#F24D5C" height="6" style="stroke: #C82930; stroke-width: 1.0;" width="6" x="325" y="1229.1914"/><text fill="#000000" font-family="sans-serif" font-size="11" lengthAdjust="spacingAndGlyphs" textLength="127" x="337" y="1234.4995">setLevel(level : String)</text><polygon fill="#FFFF44" points="328,1239.9961,332,1243.9961,328,1247.9961,324,1243.9961" style="stroke: #B38D22; stroke-width: 1.0;"/><text fill="#000000" font-family="sans-serif" font-size="11" lengthAdjust="spacingAndGlyphs" textLength="232" x="337" y="1247.3042">mouseClickControls(event : MouseEvent)</text><rect fill="#F24D5C" height="6" style="stroke: #C82930; stroke-width: 1.0;" width="6" x="325" y="1254.8008"/><text fill="#000000" font-family="sans-serif" font-size="11" lengthAdjust="spacingAndGlyphs" textLength="177" x="337" y="1260.1089">loadGame(event : MouseEvent)</text><!--class TetrisController--><rect fill="#FEFECE" filter="url(#f1ltev19ra5w4u)" height="726.6484" id="TetrisController" style="stroke: #A80036; stroke-width: 1.5;" width="619" x="811.5" y="133"/><ellipse cx="1068.75" cy="149" fill="#ADD1B2" rx="11" ry="11" style="stroke: #A80036; stroke-width: 1.0;"/><path d="M1071.7188,154.6406 Q1071.1406,154.9375 1070.5,155.0859 Q1069.8594,155.2344 1069.1563,155.2344 Q1066.6563,155.2344 1065.3359,153.5859 Q1064.0156,151.9375 1064.0156,148.8125 Q1064.0156,145.6875 1065.3359,144.0313 Q1066.6563,142.375 1069.1563,142.375 Q1069.8594,142.375 1070.5078,142.5313 Q1071.1563,142.6875 1071.7188,142.9844 L1071.7188,145.7031 Q1071.0938,145.125 1070.5,144.8516 Q1069.9063,144.5781 1069.2813,144.5781 Q1067.9375,144.5781 1067.25,145.6484 Q1066.5625,146.7188 1066.5625,148.8125 Q1066.5625,150.9063 1067.25,151.9766 Q1067.9375,153.0469 1069.2813,153.0469 Q1069.9063,153.0469 1070.5,152.7734 Q1071.0938,152.5 1071.7188,151.9219 L1071.7188,154.6406 Z "/><text fill="#000000" font-family="sans-serif" font-size="12" lengthAdjust="spacingAndGlyphs" textLength="96" x="1089.25" y="153.1543">TetrisController</text><line style="stroke: #A80036; stroke-width: 1.5;" x1="812.5" x2="1429.5" y1="165" y2="165"/><rect fill="none" height="6" style="stroke: #C82930; stroke-width: 1.0;" width="6" x="819.5" y="173.9023"/><text fill="#000000" font-family="sans-serif" font-size="11" lengthAdjust="spacingAndGlyphs" textLength="128" x="831.5" y="179.2104">playArea : AnchorPane</text><rect fill="none" height="6" style="stroke: #C82930; stroke-width: 1.0;" width="6" x="819.5" y="186.707"/><text fill="#000000" font-family="sans-serif" font-size="11" lengthAdjust="spacingAndGlyphs" textLength="108" x="831.5" y="192.0151">image : ImageView</text><rect fill="none" height="6" style="stroke: #C82930; stroke-width: 1.0;" width="6" x="819.5" y="199.5117"/><text fill="#000000" font-family="sans-serif" font-size="11" lengthAdjust="spacingAndGlyphs" textLength="92" x="831.5" y="204.8198">scoreText : Text</text><rect fill="none" height="6" style="stroke: #C82930; stroke-width: 1.0;" width="6" x="819.5" y="212.3164"/><text fill="#000000" font-family="sans-serif" font-size="11" lengthAdjust="spacingAndGlyphs" textLength="131" x="831.5" y="217.6245">linesClearedText : Text</text><rect fill="none" height="6" style="stroke: #C82930; stroke-width: 1.0;" width="6" x="819.5" y="225.1211"/><text fill="#000000" font-family="sans-serif" font-size="11" lengthAdjust="spacingAndGlyphs" textLength="98" x="831.5" y="230.4292">gameStats : Text</text><rect fill="none" height="6" style="stroke: #C82930; stroke-width: 1.0;" width="6" x="819.5" y="237.9258"/><text fill="#000000" font-family="sans-serif" font-size="11" lengthAdjust="spacingAndGlyphs" textLength="149" x="831.5" y="243.2339">currentDifficultyText : Text</text><rect fill="none" height="6" style="stroke: #C82930; stroke-width: 1.0;" width="6" x="819.5" y="250.7305"/><text fill="#000000" font-family="sans-serif" font-size="11" lengthAdjust="spacingAndGlyphs" textLength="104" x="831.5" y="256.0386">currentUser : Text</text><rect fill="none" height="6" style="stroke: #C82930; stroke-width: 1.0;" width="6" x="819.5" y="263.5352"/><text fill="#000000" font-family="sans-serif" font-size="11" lengthAdjust="spacingAndGlyphs" textLength="120" x="831.5" y="268.8433">highScoreUser : Text</text><rect fill="none" height="6" style="stroke: #C82930; stroke-width: 1.0;" width="6" x="819.5" y="276.3398"/><text fill="#000000" font-family="sans-serif" font-size="11" lengthAdjust="spacingAndGlyphs" textLength="93" x="831.5" y="281.6479">highScore : Text</text><rect fill="none" height="6" style="stroke: #C82930; stroke-width: 1.0;" width="6" x="819.5" y="289.1445"/><text fill="#000000" font-family="sans-serif" font-size="11" lengthAdjust="spacingAndGlyphs" textLength="119" x="831.5" y="294.4526">gameOverText : Text</text><rect fill="none" height="6" style="stroke: #C82930; stroke-width: 1.0;" width="6" x="819.5" y="301.9492"/><text fill="#000000" font-family="sans-serif" font-size="11" lengthAdjust="spacingAndGlyphs" textLength="121" x="831.5" y="307.2573">startGameText : Text</text><rect fill="none" height="6" style="stroke: #C82930; stroke-width: 1.0;" width="6" x="819.5" y="314.7539"/><text fill="#000000" font-family="sans-serif" font-size="11" lengthAdjust="spacingAndGlyphs" textLength="214" x="831.5" y="320.062">currentTetrominoGraphic : StackPane</text><rect fill="none" height="6" style="stroke: #C82930; stroke-width: 1.0;" width="6" x="819.5" y="327.5586"/><text fill="#000000" font-family="sans-serif" font-size="11" lengthAdjust="spacingAndGlyphs" textLength="197" x="831.5" y="332.8667">nextTetrominoGraphic : StackPane</text><rect fill="none" height="6" style="stroke: #C82930; stroke-width: 1.0;" width="6" x="819.5" y="340.3633"/><text fill="#000000" font-family="sans-serif" font-size="11" lengthAdjust="spacingAndGlyphs" textLength="205" x="831.5" y="345.6714">ghostTetrominoGraphic : StackPane</text><rect fill="none" height="6" style="stroke: #C82930; stroke-width: 1.0;" width="6" x="819.5" y="353.168"/><text fill="#000000" font-family="sans-serif" font-size="11" lengthAdjust="spacingAndGlyphs" textLength="210" x="831.5" y="358.4761">storedTetrominoGraphic : StackPane</text><rect fill="none" height="6" style="stroke: #C82930; stroke-width: 1.0;" width="6" x="819.5" y="365.9727"/><text fill="#000000" font-family="sans-serif" font-size="11" lengthAdjust="spacingAndGlyphs" textLength="91" x="831.5" y="371.2808">startTime : long</text><rect fill="none" height="6" style="stroke: #C82930; stroke-width: 1.0;" width="6" x="819.5" y="378.7773"/><text fill="#000000" font-family="sans-serif" font-size="11" lengthAdjust="spacingAndGlyphs" textLength="78" x="831.5" y="384.0854">game : Game</text><rect fill="none" height="6" style="stroke: #C82930; stroke-width: 1.0;" width="6" x="819.5" y="391.582"/><text fill="#000000" font-family="sans-serif" font-size="11" lengthAdjust="spacingAndGlyphs" textLength="75" x="831.5" y="396.8901">timer : Timer</text><rect fill="none" height="6" style="stroke: #C82930; stroke-width: 1.0;" width="6" x="819.5" y="404.3867"/><text fill="#000000" font-family="sans-serif" font-size="11" lengthAdjust="spacingAndGlyphs" text-decoration="underline" textLength="172" x="831.5" y="409.6948">gameSettings : GameSettings</text><line style="stroke: #000000; stroke-width: 1.0;" x1="831.5" x2="1003.5" y1="411.6948" y2="411.6948"/><rect fill="none" height="6" style="stroke: #C82930; stroke-width: 1.0;" width="6" x="819.5" y="417.1914"/><text fill="#000000" font-family="sans-serif" font-size="11" lengthAdjust="spacingAndGlyphs" textLength="118" x="831.5" y="422.4995">gameDone : boolean</text><rect fill="none" height="6" style="stroke: #C82930; stroke-width: 1.0;" width="6" x="819.5" y="429.9961"/><text fill="#000000" font-family="sans-serif" font-size="11" lengthAdjust="spacingAndGlyphs" textLength="114" x="831.5" y="435.3042">newGame : boolean</text><rect fill="none" height="6" style="stroke: #C82930; stroke-width: 1.0;" width="6" x="819.5" y="442.8008"/><text fill="#000000" font-family="sans-serif" font-size="11" lengthAdjust="spacingAndGlyphs" textLength="136" x="831.5" y="448.1089">clearingRows  : boolean</text><rect fill="none" height="6" style="stroke: #C82930; stroke-width: 1.0;" width="6" x="819.5" y="455.6055"/><text fill="#000000" font-family="sans-serif" font-size="11" lengthAdjust="spacingAndGlyphs" text-decoration="underline" textLength="204" x="831.5" y="460.9136">clearingRowsObs : BooleanProperty</text><line style="stroke: #000000; stroke-width: 1.0;" x1="831.5" x2="1035.5" y1="462.9136" y2="462.9136"/><rect fill="none" height="6" style="stroke: #C82930; stroke-width: 1.0;" width="6" x="819.5" y="468.4102"/><text fill="#000000" font-family="sans-serif" font-size="11" lengthAdjust="spacingAndGlyphs" textLength="155" x="831.5" y="473.7183">blockFXArray : Rectangle[][]</text><rect fill="none" height="6" style="stroke: #C82930; stroke-width: 1.0;" width="6" x="819.5" y="481.2148"/><text fill="#000000" font-family="sans-serif" font-size="11" lengthAdjust="spacingAndGlyphs" textLength="110" x="831.5" y="486.5229">boardCellWidth : int</text><rect fill="none" height="6" style="stroke: #C82930; stroke-width: 1.0;" width="6" x="819.5" y="494.0195"/><text fill="#000000" font-family="sans-serif" font-size="11" lengthAdjust="spacingAndGlyphs" textLength="103" x="831.5" y="499.3276">boardLayoutX : int</text><rect fill="none" height="6" style="stroke: #C82930; stroke-width: 1.0;" width="6" x="819.5" y="506.8242"/><text fill="#000000" font-family="sans-serif" font-size="11" lengthAdjust="spacingAndGlyphs" textLength="103" x="831.5" y="512.1323">boardLayoutY : int</text><rect fill="none" height="6" style="stroke: #C82930; stroke-width: 1.0;" width="6" x="819.5" y="519.6289"/><text fill="#000000" font-family="sans-serif" font-size="11" lengthAdjust="spacingAndGlyphs" textLength="115" x="831.5" y="524.937">nextBoxLayoutX : int</text><rect fill="none" height="6" style="stroke: #C82930; stroke-width: 1.0;" width="6" x="819.5" y="532.4336"/><text fill="#000000" font-family="sans-serif" font-size="11" lengthAdjust="spacingAndGlyphs" textLength="115" x="831.5" y="537.7417">nextBoxLayoutY : int</text><rect fill="none" height="6" style="stroke: #C82930; stroke-width: 1.0;" width="6" x="819.5" y="545.2383"/><text fill="#000000" font-family="sans-serif" font-size="11" lengthAdjust="spacingAndGlyphs" textLength="128" x="831.5" y="550.5464">storedBoxLayoutX : int</text><rect fill="none" height="6" style="stroke: #C82930; stroke-width: 1.0;" width="6" x="819.5" y="558.043"/><text fill="#000000" font-family="sans-serif" font-size="11" lengthAdjust="spacingAndGlyphs" textLength="128" x="831.5" y="563.3511">storedBoxLayoutY : int</text><line style="stroke: #A80036; stroke-width: 1.5;" x1="812.5" x2="1429.5" y1="569.9453" y2="569.9453"/><ellipse cx="822.5" cy="581.8477" fill="#84BE84" rx="3" ry="3" style="stroke: #038048; stroke-width: 1.0;"/><text fill="#000000" font-family="sans-serif" font-size="11" lengthAdjust="spacingAndGlyphs" textLength="53" x="831.5" y="584.1558">initialize()</text><polygon fill="#FFFF44" points="822.5,589.6523,826.5,593.6523,822.5,597.6523,818.5,593.6523" style="stroke: #B38D22; stroke-width: 1.0;"/><text fill="#000000" font-family="sans-serif" font-size="11" lengthAdjust="spacingAndGlyphs" textLength="219" x="831.5" y="596.9604">handleKeyboardAction(event KeyEvent)</text><ellipse cx="822.5" cy="607.457" fill="#84BE84" rx="3" ry="3" style="stroke: #038048; stroke-width: 1.0;"/><text fill="#000000" font-family="sans-serif" font-size="11" lengthAdjust="spacingAndGlyphs" textLength="71" x="831.5" y="609.7651">dropPieces()</text><ellipse cx="822.5" cy="620.2617" fill="#84BE84" rx="3" ry="3" style="stroke: #038048; stroke-width: 1.0;"/><text fill="#000000" font-family="sans-serif" font-size="11" lengthAdjust="spacingAndGlyphs" textLength="139" x="831.5" y="622.5698">tryMove(moveType char)</text><ellipse cx="822.5" cy="633.0664" fill="#84BE84" rx="3" ry="3" style="stroke: #038048; stroke-width: 1.0;"/><text fill="#000000" font-family="sans-serif" font-size="11" lengthAdjust="spacingAndGlyphs" textLength="97" x="831.5" y="635.3745">moveTetromino()</text><ellipse cx="822.5" cy="645.8711" fill="#84BE84" rx="3" ry="3" style="stroke: #038048; stroke-width: 1.0;"/><text fill="#000000" font-family="sans-serif" font-size="11" lengthAdjust="spacingAndGlyphs" textLength="284" x="831.5" y="648.1792">removePlacedTetromino(removeStored : boolean)</text><ellipse cx="822.5" cy="658.6758" fill="#84BE84" rx="3" ry="3" style="stroke: #038048; stroke-width: 1.0;"/><text fill="#000000" font-family="sans-serif" font-size="11" lengthAdjust="spacingAndGlyphs" textLength="96" x="831.5" y="660.9839">storeTetromino()</text><ellipse cx="822.5" cy="671.4805" fill="#84BE84" rx="3" ry="3" style="stroke: #038048; stroke-width: 1.0;"/><text fill="#000000" font-family="sans-serif" font-size="11" lengthAdjust="spacingAndGlyphs" textLength="117" x="831.5" y="673.7886">generateTetromino()</text><ellipse cx="822.5" cy="684.2852" fill="#84BE84" rx="3" ry="3" style="stroke: #038048; stroke-width: 1.0;"/><text fill="#000000" font-family="sans-serif" font-size="11" lengthAdjust="spacingAndGlyphs" textLength="259" x="831.5" y="686.5933">placeNextTetrominoGraphic(nextTetNum : int)</text><ellipse cx="822.5" cy="697.0898" fill="#84BE84" rx="3" ry="3" style="stroke: #038048; stroke-width: 1.0;"/><text fill="#000000" font-family="sans-serif" font-size="11" lengthAdjust="spacingAndGlyphs" textLength="285" x="831.5" y="699.3979">placeStoredTetrominoGraphic(storedTetNum : int)</text><ellipse cx="822.5" cy="709.8945" fill="#84BE84" rx="3" ry="3" style="stroke: #038048; stroke-width: 1.0;"/><text fill="#000000" font-family="sans-serif" font-size="11" lengthAdjust="spacingAndGlyphs" textLength="94" x="831.5" y="712.2026">updateBoardFX()</text><ellipse cx="822.5" cy="722.6992" fill="#84BE84" rx="3" ry="3" style="stroke: #038048; stroke-width: 1.0;"/><text fill="#000000" font-family="sans-serif" font-size="11" lengthAdjust="spacingAndGlyphs" textLength="203" x="831.5" y="725.0073">updateBoardFX(oldBoard : Block[][])</text><ellipse cx="822.5" cy="735.5039" fill="#84BE84" rx="3" ry="3" style="stroke: #038048; stroke-width: 1.0;"/><text fill="#000000" font-family="sans-serif" font-size="11" lengthAdjust="spacingAndGlyphs" textLength="526" x="831.5" y="737.812">updateBoardFX(currentBoard : Block[][], blockFXArray : Rectangle[][], playArea : AnchorPane)</text><ellipse cx="822.5" cy="748.3086" fill="#84BE84" rx="3" ry="3" style="stroke: #038048; stroke-width: 1.0;"/><text fill="#000000" font-family="sans-serif" font-size="11" lengthAdjust="spacingAndGlyphs" textLength="66" x="831.5" y="750.6167">clearRows()</text><ellipse cx="822.5" cy="761.1133" fill="#84BE84" rx="3" ry="3" style="stroke: #038048; stroke-width: 1.0;"/><text fill="#000000" font-family="sans-serif" font-size="11" lengthAdjust="spacingAndGlyphs" textLength="59" x="831.5" y="763.4214">clearLine()</text><ellipse cx="822.5" cy="773.918" fill="#84BE84" rx="3" ry="3" style="stroke: #038048; stroke-width: 1.0;"/><text fill="#000000" font-family="sans-serif" font-size="11" lengthAdjust="spacingAndGlyphs" textLength="294" x="831.5" y="776.2261">addBlock(layoutX : int, layoutY : int, blockColor : int)</text><ellipse cx="822.5" cy="786.7227" fill="#84BE84" rx="3" ry="3" style="stroke: #038048; stroke-width: 1.0;"/><text fill="#000000" font-family="sans-serif" font-size="11" lengthAdjust="spacingAndGlyphs" textLength="593" x="831.5" y="789.0308">addBlock(layoutX : int, layoutY : int, blockColor : int, blockFXArray : Rectangle[][], playArea : AnchorPane)</text><ellipse cx="822.5" cy="799.5273" fill="#84BE84" rx="3" ry="3" style="stroke: #038048; stroke-width: 1.0;"/><text fill="#000000" font-family="sans-serif" font-size="11" lengthAdjust="spacingAndGlyphs" textLength="266" x="831.5" y="801.8354">getScreenCoordinates(row : int, col : int) : int[]</text><ellipse cx="822.5" cy="812.332" fill="#84BE84" rx="3" ry="3" style="stroke: #038048; stroke-width: 1.0;"/><text fill="#000000" font-family="sans-serif" font-size="11" lengthAdjust="spacingAndGlyphs" textLength="250" x="831.5" y="814.6401">getGridCoordinates(row : int, col : int) : int[]</text><ellipse cx="822.5" cy="825.1367" fill="#84BE84" rx="3" ry="3" style="stroke: #038048; stroke-width: 1.0;"/><text fill="#000000" font-family="sans-serif" font-size="11" lengthAdjust="spacingAndGlyphs" textLength="279" x="831.5" y="827.4448">setGameSettings(gameSettings : GameSettings)</text><ellipse cx="822.5" cy="837.9414" fill="#84BE84" rx="3" ry="3" style="stroke: #038048; stroke-width: 1.0;"/><text fill="#000000" font-family="sans-serif" font-size="11" lengthAdjust="spacingAndGlyphs" text-decoration="underline" textLength="129" x="831.5" y="840.2495">setClearingRowsTrue()</text><line style="stroke: #000000; stroke-width: 1.0;" x1="831.5" x2="960.5" y1="842.2495" y2="842.2495"/><ellipse cx="822.5" cy="850.7461" fill="#84BE84" rx="3" ry="3" style="stroke: #038048; stroke-width: 1.0;"/><text fill="#000000" font-family="sans-serif" font-size="11" lengthAdjust="spacingAndGlyphs" textLength="199" x="831.5" y="853.0542">loadMainMenu(event : MouseEvent)</text><!--class Game--><rect fill="#FEFECE" filter="url(#f1ltev19ra5w4u)" height="48" id="Game" style="stroke: #A80036; stroke-width: 1.5;" width="68" x="1087" y="8"/><ellipse cx="1102" cy="24" fill="#ADD1B2" rx="11" ry="11" style="stroke: #A80036; stroke-width: 1.0;"/><path d="M1104.9688,29.6406 Q1104.3906,29.9375 1103.75,30.0859 Q1103.1094,30.2344 1102.4063,30.2344 Q1099.9063,30.2344 1098.5859,28.5859 Q1097.2656,26.9375 1097.2656,23.8125 Q1097.2656,20.6875 1098.5859,19.0313 Q1099.9063,17.375 1102.4063,17.375 Q1103.1094,17.375 1103.7578,17.5313 Q1104.4063,17.6875 1104.9688,17.9844 L1104.9688,20.7031 Q1104.3438,20.125 1103.75,19.8516 Q1103.1563,19.5781 1102.5313,19.5781 Q1101.1875,19.5781 1100.5,20.6484 Q1099.8125,21.7188 1099.8125,23.8125 Q1099.8125,25.9063 1100.5,26.9766 Q1101.1875,28.0469 1102.5313,28.0469 Q1103.1563,28.0469 1103.75,27.7734 Q1104.3438,27.5 1104.9688,26.9219 L1104.9688,29.6406 Z "/><text fill="#000000" font-family="sans-serif" font-size="12" lengthAdjust="spacingAndGlyphs" textLength="36" x="1116" y="28.1543">Game</text><line style="stroke: #A80036; stroke-width: 1.5;" x1="1088" x2="1154" y1="40" y2="40"/><line style="stroke: #A80036; stroke-width: 1.5;" x1="1088" x2="1154" y1="48" y2="48"/><path d="M1190,19.5 L1190,28 L1155.2305,32 L1190,36 L1190,44.6328 A0,0 0 0 0 1190,44.6328 L1306,44.6328 A0,0 0 0 0 1306,44.6328 L1306,29.5 L1296,19.5 L1190,19.5 A0,0 0 0 0 1190,19.5 " fill="#FBFB77" filter="url(#f1ltev19ra5w4u)" style="stroke: #A80036; stroke-width: 1.0;"/><path d="M1296,19.5 L1296,29.5 L1306,29.5 L1296,19.5 " fill="#FBFB77" style="stroke: #A80036; stroke-width: 1.0;"/><text fill="#000000" font-family="sans-serif" font-size="13" lengthAdjust="spacingAndGlyphs" textLength="95" x="1196" y="36.5669">See other UML</text><!--link Main to Tetris_Window--><path d="M507.0639,496.5 C535.2591,496.5 565.4097,496.5 590.7936,496.5 " fill="none" id="Main-Tetris_Window" style="stroke: #A80036; stroke-width: 1.0;"/><text fill="#000000" font-family="sans-serif" font-size="13" lengthAdjust="spacingAndGlyphs" textLength="34" x="525.5" y="489.5669">loads</text><polygon fill="#000000" points="562.5,483.5664,568.5,486.5664,562.5,489.5664,562.5,483.5664" style="stroke: #000000; stroke-width: 1.0;"/><!--link Tetris_Window to MenuController--><path d="M645.6728,514.6214 C627.408,576.7525 566.0004,785.6418 521.6087,936.6484 " fill="none" id="Tetris_Window-MenuController" style="stroke: #A80036; stroke-width: 1.0;"/><polygon fill="#000000" points="552,901,555,895,558,901,552,901" style="stroke: #000000; stroke-width: 1.0;"/><text fill="#000000" font-family="sans-serif" font-size="13" lengthAdjust="spacingAndGlyphs" textLength="51" x="531" y="916.0669">controls</text><!--link Tetris_Window to TetrisController--><path d="M711.0032,496.5 C738.5346,496.5 773.4587,496.5 811.2632,496.5 " fill="none" id="Tetris_Window-TetrisController" style="stroke: #A80036; stroke-width: 1.0;"/><polygon fill="#000000" points="736.25,483.5664,730.25,486.5664,736.25,489.5664,736.25,483.5664" style="stroke: #000000; stroke-width: 1.0;"/><text fill="#000000" font-family="sans-serif" font-size="13" lengthAdjust="spacingAndGlyphs" textLength="51" x="742.25" y="489.5669">controls</text><!--link TetrisController to ClearLines--><path d="M1060.6932,860.2522 C1061.4464,876.0498 1062.8447,891.6865 1065,907 C1069.7127,940.4836 1078.7658,976.2764 1088.2414,1007.9378 " fill="none" id="TetrisController-ClearLines" style="stroke: #A80036; stroke-width: 1.0;"/><polygon fill="#000000" points="1087,901,1090,895,1093,901,1087,901" style="stroke: #000000; stroke-width: 1.0;"/><text fill="#000000" font-family="sans-serif" font-size="13" lengthAdjust="spacingAndGlyphs" textLength="51" x="1066" y="916.0669">controls</text><!--link TetrisController to ClearLines--><path d="M1136.1031,860.2319 C1135.9076,876.035 1135.5493,891.6785 1135,907 C1133.8204,939.9019 1131.5248,975.8665 1129.1282,1007.8491 " fill="none" id="TetrisController-ClearLines" style="stroke: #A80036; stroke-width: 1.0;"/><text fill="#000000" font-family="sans-serif" font-size="13" lengthAdjust="spacingAndGlyphs" textLength="28" x="1136" y="903.0669">calls</text><polygon fill="#000000" points="1145.5,912.1328,1148.5,918.1328,1151.5,912.1328,1145.5,912.1328" style="stroke: #000000; stroke-width: 1.0;"/><!--link GameSettings to MenuController--><path d="M199.6693,641.7827 C227.233,709.658 263.0568,790.6119 302,860 C316.2886,885.459 332.6454,911.5229 349.4514,936.6724 " fill="none" id="GameSettings-MenuController" style="stroke: #A80036; stroke-width: 1.0;"/><polygon fill="#000000" points="371,901,374,895,377,901,371,901" style="stroke: #000000; stroke-width: 1.0;"/><text fill="#000000" font-family="sans-serif" font-size="13" lengthAdjust="spacingAndGlyphs" textLength="97" x="327" y="916.0669">sets settings in</text><!--link GameSettings to TetrisController--><path d="M172.7509,351.3133 C194.7787,278.5813 233.7323,196.858 302,153 C461.6671,50.4232 551.3726,86.186 729,153 C757.2666,163.6324 784.8255,177.3308 811.381,193.1151 " fill="none" id="GameSettings-TetrisController" style="stroke: #A80036; stroke-width: 1.0;"/><polygon fill="#000000" points="507,93.0664,501,96.0664,507,99.0664,507,93.0664" style="stroke: #000000; stroke-width: 1.0;"/><text fill="#000000" font-family="sans-serif" font-size="13" lengthAdjust="spacingAndGlyphs" textLength="83" x="513" y="99.0669">gets settings</text><!--link Game to TetrisController--><path d="M1121,56.3195 C1121,74.3331 1121,101.193 1121,132.9249 " fill="none" id="Game-TetrisController" style="stroke: #A80036; stroke-width: 1.0;"/><polygon fill="#000000" points="1143,97,1146,91,1149,97,1143,97" style="stroke: #000000; stroke-width: 1.0;"/><text fill="#000000" font-family="sans-serif" font-size="13" lengthAdjust="spacingAndGlyphs" textLength="51" x="1122" y="112.0669">controls</text><!--
@startuml

class ClearLines<implements Runnable> {
      -playArea : AnchorPane
      -t : Thread
      -rowsToClear : ArrayList<Integer>
      -blockFXArray : Rectangle[][]
      -currentBoard : Block[][]
      -oldBoard : Block[][]
      - -
      .. Constructor ..
      ClearLines(currentBoard : Block[][], oldBoard : Block[][], rowsToClear : ArrayList<Integer>, blockFXArray : Rectangle[][], playArea : AnchorPane)
      ..
      +run()
      +start()
}

class GameSettings {
      -dropSpeed : int
      -level : String
      -user : String
      -currentControls : KeyCode[]
      -standardControls : KeyCode[]
      -wasdControls : KeyCode[]
      - -
      .. Constructor ..
      +GameSettings()
      .. Setters ..
      +setDropSpeed(dropSpeed : int)
      +setLevel(level : String)
      +setUser(user : String)
      +setCurrentControls(currentControls : String)
      .. Getters ..
      +getDropSpeed() : int
      +getLevel() : String
      +getUser() : String
      +getControls() : KeyCode[]
}

class Main<extends Application> {
      +start(primaryStage : Stage)
      {static} +main(args : String[])
}

class MenuController {
      -dropSpeedButton1 : Rectangle
      -EASY : Rectangle
      -controlsButtonStandard : Rectangle
      -newGame : Rectangle
      -controlsText1 : Teext
      -controlsText2 : Teext
      -userTextField : TextField
      -currentDropSpeedButton : Rectangle
      -currentLevelButton : Rectangle
      -currentControlButton : Rectangle
      -gameSettings : GameSettings
      -dropSpeed : int
      +initialize()
      #handleNewGameButtonAction(event : MouseEvent)
      #mouseOverButton(event : MouseEvent)
      #mouseExitButton(event : MouseEvent)
      #mouseClickDropSpeed(event : MouseEvent)
      -setDropSpeed(difficulty : String)
      #mouseClickLevel(event : MouseEvent)
      -setLevel(level : String)
      #mouseClickControls(event : MouseEvent)
      -loadGame(event : MouseEvent)
}

class TetrisController {
      -playArea : AnchorPane
      -image : ImageView
      -scoreText : Text
      -linesClearedText : Text
      -gameStats : Text
      -currentDifficultyText : Text
      -currentUser : Text
      -highScoreUser : Text
      -highScore : Text
      -gameOverText : Text
      -startGameText : Text
      -currentTetrominoGraphic : StackPane
      -nextTetrominoGraphic : StackPane
      -ghostTetrominoGraphic : StackPane
      -storedTetrominoGraphic : StackPane
      -startTime : long
      -game : Game
      -timer : Timer
      {static} -gameSettings : GameSettings
      -gameDone : boolean
      -newGame : boolean
      -clearingRows  : boolean
      {static} -clearingRowsObs : BooleanProperty
      -blockFXArray : Rectangle[][]
      -boardCellWidth : int
      -boardLayoutX : int
      -boardLayoutY : int
      -nextBoxLayoutX : int
      -nextBoxLayoutY : int
      -storedBoxLayoutX : int
      -storedBoxLayoutY : int
      +initialize()
      #handleKeyboardAction(event KeyEvent)
      +dropPieces()
      +tryMove(moveType char)
      +moveTetromino()
      +removePlacedTetromino(removeStored : boolean)
      +storeTetromino()
      +generateTetromino()
      +placeNextTetrominoGraphic(nextTetNum : int)
      +placeStoredTetrominoGraphic(storedTetNum : int)
      +updateBoardFX()
      +updateBoardFX(oldBoard : Block[][])
      +updateBoardFX(currentBoard : Block[][], blockFXArray : Rectangle[][], playArea : AnchorPane)
      +clearRows()
      +clearLine()
      +addBlock(layoutX : int, layoutY : int, blockColor : int)
      +addBlock(layoutX : int, layoutY : int, blockColor : int, blockFXArray : Rectangle[][], playArea : AnchorPane)
      +getScreenCoordinates(row : int, col : int) : int[]
      +getGridCoordinates(row : int, col : int) : int[]
      +setGameSettings(gameSettings : GameSettings)
      {static} +setClearingRowsTrue()
      +loadMainMenu(event : MouseEvent)
}

package Tetris_Window <<Rectangle>>{
}

class Game {

}
note "See other UML" as gameNote

Main -right- Tetris_Window : loads >
Tetris_Window -down- MenuController : controls <
TetrisController -left- Tetris_Window : controls >
ClearLines -up- TetrisController : controls >
ClearLines -up- TetrisController : calls <
GameSettings - - MenuController : sets settings in <
GameSettings -right- TetrisController : gets settings <
TetrisController -up- Game : controls >
Game -right- gameNote
@enduml

PlantUML version 1.2018.08(Sun Jun 24 06:31:00 MDT 2018)
(GPL source distribution)
Java Runtime: OpenJDK Runtime Environment
JVM: OpenJDK 64-Bit Server VM
Java Version: 1.8.0_172-b11
Operating System: Linux
OS Version: 4.17.13-arch1-1-ARCH
Default Encoding: UTF-8
Language: en
Country: US
--></g></svg>